<?xml version="1.0" encoding="UTF-8" standalone="no"?>
<svg
   xmlns:dc="http://purl.org/dc/elements/1.1/"
   xmlns:cc="http://creativecommons.org/ns#"
   xmlns:rdf="http://www.w3.org/1999/02/22-rdf-syntax-ns#"
   xmlns:svg="http://www.w3.org/2000/svg"
   xmlns="http://www.w3.org/2000/svg"
   viewBox="0 0 682 402"
   height="402"
   width="682"
   xml:space="preserve"
   version="1.1"
   id="svg2"><metadata
     id="metadata8"><rdf:RDF><cc:Work
         rdf:about=""><dc:format>image/svg+xml</dc:format><dc:type
           rdf:resource="http://purl.org/dc/dcmitype/StillImage" /><dc:title></dc:title></cc:Work></rdf:RDF></metadata><defs
     id="defs6"><clipPath
       id="clipPath16"
       clipPathUnits="userSpaceOnUse"><path
         id="path18"
         d="m 0,1000 1000,0 L 1000,0 0,0 0,1000 Z" /></clipPath></defs><g
     transform="matrix(1.25,0,0,-1.25,0,402)"
     id="g10"><g
       transform="translate(-249.93795,-300.70235)"
       id="g12"><g
         clip-path="url(#clipPath16)"
         id="g14"><g
           transform="translate(284.6343,452.8644)"
           id="g20"><path
             id="path22"
             style="fill:#ffffff;fill-opacity:1;fill-rule:nonzero;stroke:none"
             d="m 0,0 c -15.807,0 -25.849,3.906 -34.403,7.253 l 4.091,21.758 c 4.463,-2.232 13.947,-4.463 19.898,-4.463 11.344,0 17.295,6.323 17.295,20.828 l 0,79.221 c 0.186,27.523 14.691,44.631 38.494,44.631 15.808,0 25.85,-3.905 34.404,-7.251 l -4.091,-21.759 c -4.463,2.232 -13.948,4.464 -19.898,4.464 -11.159,0 -17.109,-6.138 -17.295,-20.085 l 0,-79.221 C 38.495,17.48 23.99,0 0,0" /></g><g
           transform="translate(418.3423,555.5177)"
           id="g24"><path
             id="path26"
             style="fill:#ffffff;fill-opacity:1;fill-rule:nonzero;stroke:none"
             d="m 0,0 -11.715,64.716 35.705,0 L 12.274,0 0,0 Z" /></g><g
           transform="translate(560.2324,620.2335)"
           id="g28"><path
             id="path30"
             style="fill:#ffffff;fill-opacity:1;fill-rule:nonzero;stroke:none"
             d="m 0,0 21.387,0 -69.366,-130.176 -21.385,0 L 0,0 Z" /></g><g
           transform="translate(647.6348,575.7882)"
           id="g32"><path
             id="path34"
             style="fill:#ffffff;fill-opacity:1;fill-rule:nonzero;stroke:none"
             d="m 0,0 c 6.882,0 12.646,5.765 12.646,12.645 0,6.881 -5.764,12.646 -12.646,12.646 -6.88,0 -12.645,-5.765 -12.645,-12.646 C -12.645,5.765 -6.88,0 0,0 m 33.66,12.645 c 0,-18.597 -15.062,-33.66 -33.66,-33.66 -18.597,0 -33.659,15.063 -33.659,33.66 0,18.596 15.062,33.66 33.659,33.66 18.598,0 33.66,-15.064 33.66,-33.66" /></g><g
           transform="translate(630.5244,405.8136)"
           id="g36"><path
             id="path38"
             style="fill:#ffffff;fill-opacity:1;fill-rule:nonzero;stroke:none"
             d="m 0,0 0,17.618 c 0,6.835 -4.117,10.614 -9.169,10.614 -5.051,0 -9.17,-3.779 -9.17,-10.614 l 0,-17.618 4.612,0 0,9.281 9.116,0 L -4.611,0 0,0 Z m -13.727,13.896 0,3.722 c 0,4.058 2.033,6.003 4.558,6.003 2.526,0 4.558,-1.945 4.558,-6.003 l 0,-3.722 -9.116,0 z" /></g><g
           transform="translate(639.6396,433.6027)"
           id="g40"><path
             id="path42"
             style="fill:#ffffff;fill-opacity:1;fill-rule:nonzero;stroke:none"
             d="m 0,0 0,-27.789 4.612,0 0,9.281 3.35,0 6.588,-9.281 5.601,0 -7.248,10.281 c 2.965,1.556 4.941,4.669 4.941,8.227 C 17.844,-4.169 13.727,0 8.729,0 L 0,0 Z m 13.287,-9.281 c 0,-2.501 -2.031,-4.614 -4.558,-4.614 l -4.117,0 0,9.282 4.117,0 c 2.527,0 4.558,-2.112 4.558,-4.668" /></g><g
           transform="translate(676.2627,405.8136)"
           id="g44"><path
             id="path46"
             style="fill:#ffffff;fill-opacity:1;fill-rule:nonzero;stroke:none"
             d="m 0,0 0,23.177 7.797,0 0,4.613 -20.151,0 0,-4.613 7.796,0 L -4.558,0 0,0 Z" /></g><g
           transform="translate(703.7158,428.9894)"
           id="g48"><path
             id="path50"
             style="fill:#ffffff;fill-opacity:1;fill-rule:nonzero;stroke:none"
             d="m 0,0 0,4.613 -13.727,0 0,-27.789 13.727,0 0,4.614 -9.115,0 0,8.336 9.115,0 0,4.668 -9.115,0 0,5.558 L 0,0 Z" /></g><g
           transform="translate(612.1865,381.3742)"
           id="g52"><path
             id="path54"
             style="fill:#ffffff;fill-opacity:1;fill-rule:nonzero;stroke:none"
             d="m 0,0 0,-27.79 13.727,0 0,4.613 -9.115,0 L 4.612,0 0,0 Z" /></g><g
           transform="translate(644.1963,353.5841)"
           id="g56"><path
             id="path58"
             style="fill:#ffffff;fill-opacity:1;fill-rule:nonzero;stroke:none"
             d="m 0,0 4.612,0 0,17.619 c 0,6.836 -4.118,10.615 -9.17,10.615 -5.051,0 -9.169,-3.779 -9.169,-10.615 l 0,-17.619 4.613,0 0,9.283 L 0,9.283 0,0 Z m -9.114,13.896 0,3.723 c 0,4.057 2.032,6.002 4.556,6.002 2.526,0 4.558,-1.945 4.558,-6.002 l 0,-3.723 -9.114,0 z" /></g><g
           transform="translate(674.8896,381.3742)"
           id="g60"><path
             id="path62"
             style="fill:#ffffff;fill-opacity:1;fill-rule:nonzero;stroke:none"
             d="m 0,0 -20.151,0 0,-4.612 7.797,0 0,-23.178 4.557,0 0,23.178 7.797,0 L 0,0 Z" /></g><g
           transform="translate(680.8193,376.7609)"
           id="g64"><path
             id="path66"
             style="fill:#ffffff;fill-opacity:1;fill-rule:nonzero;stroke:none"
             d="m 0,0 4.611,0 0,-18.562 -4.611,0 0,-4.614 13.727,0 0,4.614 -4.558,0 0,18.562 4.558,0 0,4.612 L 0,4.612 0,0 Z" /></g><g
           transform="translate(700.5303,376.7609)"
           id="g68"><path
             id="path70"
             style="fill:#ffffff;fill-opacity:1;fill-rule:nonzero;stroke:none"
             d="m 0,0 7.797,0 0,-23.176 4.557,0 0,23.176 7.797,0 0,4.612 L 0,4.612 0,0 Z" /></g><g
           transform="translate(740.3369,363.756)"
           id="g72"><path
             id="path74"
             style="fill:#ffffff;fill-opacity:1;fill-rule:nonzero;stroke:none"
             d="m 0,0 c 0,-4.057 -2.032,-6.002 -4.558,-6.002 -2.524,0 -4.556,1.945 -4.556,6.002 l 0,17.618 -4.613,0 0,-17.618 c 0,-6.836 4.118,-10.615 9.169,-10.615 5.052,0 9.17,3.779 9.17,10.615 l 0,17.618 L 0,17.618 0,0 Z" /></g><g
           transform="translate(760.4883,381.3742)"
           id="g76"><path
             id="path78"
             style="fill:#ffffff;fill-opacity:1;fill-rule:nonzero;stroke:none"
             d="m 0,0 -6.425,0 0,-27.79 6.425,0 c 6.808,0 12.354,6.225 12.354,13.894 C 12.354,-6.226 6.808,0 0,0 m 0,-23.177 -1.812,0 0,18.565 1.812,0 c 4.009,0 7.303,-4.169 7.303,-9.284 0,-5.112 -3.294,-9.281 -7.303,-9.281" /></g><g
           transform="translate(781.5176,381.3742)"
           id="g80"><path
             id="path82"
             style="fill:#ffffff;fill-opacity:1;fill-rule:nonzero;stroke:none"
             d="m 0,0 0,-27.79 13.727,0 0,4.613 -9.115,0 0,8.336 9.115,0 0,4.669 -9.115,0 0,5.559 9.115,0 0,4.613 L 0,0 Z" /></g><g
           transform="translate(630.0303,319.8634)"
           id="g84"><path
             id="path86"
             style="fill:#ffffff;fill-opacity:1;fill-rule:nonzero;stroke:none"
             d="m 0,0 c 0,5.112 -4.117,9.282 -9.114,9.282 l -8.73,0 0,-27.79 4.613,0 0,9.283 3.348,0 6.589,-9.283 5.602,0 -7.248,10.282 C -1.976,-6.67 0,-3.557 0,0 m -9.114,-4.611 -4.117,0 0,9.281 4.117,0 c 2.526,0 4.557,-2.113 4.557,-4.67 0,-2.501 -2.031,-4.611 -4.557,-4.611" /></g><g
           transform="translate(653.3662,311.5265)"
           id="g88"><path
             id="path90"
             style="fill:#ffffff;fill-opacity:1;fill-rule:nonzero;stroke:none"
             d="m 0,0 c 0,-4.057 -2.032,-6.002 -4.558,-6.002 -2.525,0 -4.557,1.945 -4.557,6.002 l 0,17.619 -4.612,0 0,-17.619 c 0,-6.836 4.118,-10.615 9.169,-10.615 5.052,0 9.17,3.779 9.17,10.615 l 0,17.619 L 0,17.619 0,0 Z" /></g><g
           transform="translate(684.9375,319.8634)"
           id="g92"><path
             id="path94"
             style="fill:#ffffff;fill-opacity:1;fill-rule:nonzero;stroke:none"
             d="m 0,0 c 0,5.112 -4.117,9.282 -9.114,9.282 l -8.73,0 0,-27.79 4.612,0 0,9.283 3.35,0 6.588,-9.283 5.6,0 -7.246,10.282 C -1.976,-6.67 0,-3.557 0,0 m -9.114,-4.611 -4.118,0 0,9.281 4.118,0 c 2.526,0 4.557,-2.113 4.557,-4.67 0,-2.501 -2.031,-4.611 -4.557,-4.611" /></g><g
           transform="translate(703.7158,329.59)"
           id="g96"><path
             id="path98"
             style="fill:#ffffff;fill-opacity:1;fill-rule:nonzero;stroke:none"
             d="m 0,0 c -5.052,0 -9.169,-3.779 -9.169,-10.615 l 0,-17.619 4.611,0 0,9.281 9.116,0 0,-9.281 4.612,0 0,17.619 C 9.17,-3.779 5.051,0 0,0 m 4.558,-14.339 -9.116,0 0,3.724 c 0,4.056 2.033,6.002 4.558,6.002 2.525,0 4.558,-1.946 4.558,-6.002 l 0,-3.724 z" /></g><g
           transform="translate(722,329.1457)"
           id="g100"><path
             id="path102"
             style="fill:#ffffff;fill-opacity:1;fill-rule:nonzero;stroke:none"
             d="m 0,0 0,-27.789 13.728,0 0,4.613 -9.115,0 L 4.613,0 0,0 Z" /></g><g
           transform="translate(631.541,466.2677)"
           id="g104"><path
             id="path106"
             style="fill:#ffffff;fill-opacity:1;fill-rule:nonzero;stroke:none"
             d="m 0,0 c 0,9.438 -13.856,7.594 -13.856,11.844 0,1.306 0.907,2.438 3.273,2.438 4.616,0 8.824,-1.776 8.824,-1.776 l 1.044,5.058 c 0,0 -3.147,2.445 -9.653,2.445 -7.049,0 -10.799,-3.336 -10.799,-8.171 0,-9.537 14.281,-8.394 14.281,-12.483 0,-1.775 -1.592,-2.418 -4.396,-2.418 -4.91,0 -8.849,1.527 -8.849,1.527 l -0.652,-5.133 c 0,0 2.635,-2.001 9.453,-2.001 C -4.364,-8.67 0,-5.725 0,0" /></g><g
           transform="translate(687.0918,457.6457)"
           id="g108"><path
             id="path110"
             style="fill:#ffffff;fill-opacity:1;fill-rule:nonzero;stroke:none"
             d="m 0,0 0,0 0.006,0 0.006,0 c 7.606,0.004 11.267,5.107 11.267,14.291 0,9.185 -3.661,14.286 -11.267,14.292 l -0.006,0 -0.006,0 C -7.608,28.577 -11.27,23.476 -11.27,14.291 -11.27,5.107 -7.608,0.004 0,0 m 0.006,22.593 c 2.259,-0.006 3.121,-2.047 3.121,-8.302 0,-6.256 -0.862,-8.295 -3.121,-8.301 -2.26,0.006 -3.122,2.045 -3.122,8.301 0,6.255 0.862,8.296 3.122,8.302" /></g><g
           transform="translate(652.1299,458.0421)"
           id="g112"><path
             id="path114"
             style="fill:#ffffff;fill-opacity:1;fill-rule:nonzero;stroke:none"
             d="m 0,0 0,4.612 -4.557,0 0,18.565 4.557,0 0,4.613 -17.049,0 0,-4.613 4.614,0 0,-18.565 -4.614,0 0,-4.612 L 0,0 Z" /></g><g
           transform="translate(675.0264,458.0421)"
           id="g116"><path
             id="path118"
             style="fill:#ffffff;fill-opacity:1;fill-rule:nonzero;stroke:none"
             d="m 0,0 0,4.612 -9.115,0 0,23.178 -7.934,0 0,-27.79 L 0,0 Z" /></g><g
           transform="translate(740.3379,428.9894)"
           id="g120"><path
             id="path122"
             style="fill:#ffffff;fill-opacity:1;fill-rule:nonzero;stroke:none"
             d="m 0,0 0,4.613 -13.727,0 0,-27.789 13.727,0 0,4.614 -9.115,0 0,8.336 9.115,0 0,4.668 -9.115,0 0,5.558 L 0,0 Z" /></g></g></g></g></svg>